<?xml version="1.0" encoding="UTF-8" standalone="no"?>
<!DOCTYPE svg PUBLIC "-//W3C//DTD SVG 1.1//EN"
 "http://www.w3.org/Graphics/SVG/1.1/DTD/svg11.dtd">
<!-- Generated by graphviz version 2.42.4 (0)
 -->
<!-- Pages: 1 -->
<svg width="1535pt" height="611pt"
 viewBox="0.00 0.00 1534.93 611.00" xmlns="http://www.w3.org/2000/svg" xmlns:xlink="http://www.w3.org/1999/xlink">
<g id="graph0" class="graph" transform="scale(1 1) rotate(0) translate(4 607)">
<polygon fill="white" stroke="transparent" points="-4,4 -4,-607 1530.93,-607 1530.93,4 -4,4"/>
<g id="clust1" class="cluster">
<title>cluster_0xc0000a4600</title>
<polygon fill="none" stroke="black" stroke-dasharray="1,5" points="8,-8 8,-595 1518.93,-595 1518.93,-8 8,-8"/>
</g>
<g id="clust2" class="cluster">
<title>cluster_0xc0000a4640</title>
<polygon fill="none" stroke="black" stroke-dasharray="1,5" points="16,-30 16,-587 1510.93,-587 1510.93,-30 16,-30"/>
<text text-anchor="middle" x="763.47" y="-571.8" font-family="Times,serif" font-size="14.00">SUM(a,b)</text>
</g>
<g id="clust3" class="cluster">
<title>cluster_0xc0000a4680</title>
<polygon fill="none" stroke="black" stroke-dasharray="1,5" points="24,-50 24,-441 1502.93,-441 1502.93,-50 24,-50"/>
<text text-anchor="middle" x="763.47" y="-425.8" font-family="Times,serif" font-size="14.00">XOR(a,b)</text>
</g>
<g id="clust4" class="cluster">
<title>cluster_0xc0000a46c0</title>
<polygon fill="none" stroke="black" stroke-dasharray="1,5" points="32,-195 32,-410 619.06,-410 619.06,-195 32,-195"/>
<text text-anchor="middle" x="325.53" y="-394.8" font-family="Times,serif" font-size="14.00">OR(a,b)</text>
</g>
<g id="clust5" class="cluster">
<title>cluster_0xc0000a4780</title>
<polygon fill="none" stroke="black" stroke-dasharray="1,5" points="132,-58 132,-187 785.56,-187 785.56,-58 132,-58"/>
<text text-anchor="middle" x="458.78" y="-171.8" font-family="Times,serif" font-size="14.00">NAND(a,b)</text>
</g>
<g id="clust6" class="cluster">
<title>cluster_0xc0000a48c0</title>
<polygon fill="none" stroke="black" stroke-dasharray="1,5" points="702.27,-195 702.27,-302 1494.93,-302 1494.93,-195 702.27,-195"/>
<text text-anchor="middle" x="1098.6" y="-286.8" font-family="Times,serif" font-size="14.00">AND(OR(a,b),NAND(a,b))</text>
</g>
<g id="clust7" class="cluster">
<title>cluster_0xc0000a4980</title>
<polygon fill="none" stroke="black" stroke-dasharray="1,5" points="132,-449 132,-556 862.06,-556 862.06,-449 132,-449"/>
<text text-anchor="middle" x="497.03" y="-540.8" font-family="Times,serif" font-size="14.00">AND(a,b)</text>
</g>
<!-- a=1 -->
<g id="node1" class="node">
<title>a=1</title>
<polygon fill="black" stroke="black" points="85,-313.5 41,-313.5 41,-284.5 85,-284.5 85,-278.5 103,-299 85,-319.5 85,-313.5"/>
<text text-anchor="middle" x="72" y="-291.5" font-family="Times,serif" font-size="30.00" fill="white">a=1</text>
</g>
<!-- 0xc000088300 -->
<g id="node9" class="node">
<title>0xc000088300</title>
<polygon fill="none" stroke="black" points="180.3,-260 220.39,-294.5 140.2,-294.5 180.3,-260"/>
<text text-anchor="middle" x="180.3" y="-279.3" font-family="Times,serif" font-size="14.00">𓇲</text>
</g>
<!-- a=1&#45;&gt;0xc000088300 -->
<g id="edge1" class="edge">
<title>a=1&#45;&gt;0xc000088300</title>
<path fill="none" stroke="red" d="M103.18,-294.46C114,-292.83 126.4,-290.96 138,-289.22"/>
<polygon fill="red" stroke="red" points="138.57,-292.67 147.93,-287.72 137.52,-285.75 138.57,-292.67"/>
</g>
<!-- 0xc0000884a0 -->
<g id="node16" class="node">
<title>0xc0000884a0</title>
<polygon fill="none" stroke="black" points="180.3,-88 220.39,-122.5 140.2,-122.5 180.3,-88"/>
<text text-anchor="middle" x="180.3" y="-107.3" font-family="Times,serif" font-size="14.00">𓇲</text>
</g>
<!-- a=1&#45;&gt;0xc0000884a0 -->
<g id="edge9" class="edge">
<title>a=1&#45;&gt;0xc0000884a0</title>
<path fill="none" stroke="red" d="M97.97,-278.42C100.25,-275.77 102.32,-272.95 104,-270 132.61,-219.78 99.53,-190.82 132,-143 135.73,-137.51 140.74,-132.7 146.11,-128.6"/>
<polygon fill="red" stroke="red" points="148.42,-131.25 154.71,-122.73 144.48,-125.47 148.42,-131.25"/>
</g>
<!-- 0xc000088720 -->
<g id="node26" class="node">
<title>0xc000088720</title>
<polygon fill="none" stroke="black" points="180.3,-457 220.39,-491.5 140.2,-491.5 180.3,-457"/>
<text text-anchor="middle" x="180.3" y="-476.3" font-family="Times,serif" font-size="14.00">𓇲</text>
</g>
<!-- a=1&#45;&gt;0xc000088720 -->
<g id="edge22" class="edge">
<title>a=1&#45;&gt;0xc000088720</title>
<path fill="none" stroke="red" d="M97.68,-319.75C100.01,-322.37 102.18,-325.14 104,-328 125.58,-361.91 113.86,-378.13 132,-414 140.17,-430.15 152.04,-446.7 161.84,-459.19"/>
<polygon fill="red" stroke="red" points="159.23,-461.53 168.23,-467.13 164.69,-457.14 159.23,-461.53"/>
</g>
<!-- b=1 -->
<g id="node2" class="node">
<title>b=1</title>
<polygon fill="black" stroke="black" points="86,-372.5 40,-372.5 40,-343.5 86,-343.5 86,-337.5 104,-358 86,-378.5 86,-372.5"/>
<text text-anchor="middle" x="72" y="-350.5" font-family="Times,serif" font-size="30.00" fill="white">b=1</text>
</g>
<!-- 0xc000088380 -->
<g id="node12" class="node">
<title>0xc000088380</title>
<polygon fill="none" stroke="black" points="180.3,-324 220.39,-358.5 140.2,-358.5 180.3,-324"/>
<text text-anchor="middle" x="180.3" y="-343.3" font-family="Times,serif" font-size="14.00">𓇲</text>
</g>
<!-- b=1&#45;&gt;0xc000088380 -->
<g id="edge4" class="edge">
<title>b=1&#45;&gt;0xc000088380</title>
<path fill="none" stroke="red" d="M104.03,-354.79C115.22,-353.63 127.99,-352.31 139.8,-351.09"/>
<polygon fill="red" stroke="red" points="140.28,-354.56 149.87,-350.05 139.56,-347.59 140.28,-354.56"/>
</g>
<!-- 0xc000088560 -->
<g id="node19" class="node">
<title>0xc000088560</title>
<polygon fill="none" stroke="black" points="561.67,-110 601.76,-144.5 521.58,-144.5 561.67,-110"/>
<text text-anchor="middle" x="561.67" y="-129.3" font-family="Times,serif" font-size="14.00">𓇲</text>
</g>
<!-- b=1&#45;&gt;0xc000088560 -->
<g id="edge13" class="edge">
<title>b=1&#45;&gt;0xc000088560</title>
<path fill="none" stroke="red" d="M96.65,-337.44C99.34,-334.45 101.88,-331.27 104,-328 123.81,-297.45 104.95,-275.38 132,-251 249.16,-145.43 325.77,-212.15 476.27,-165 491.82,-160.13 508.67,-153.93 523.19,-148.29"/>
<polygon fill="red" stroke="red" points="524.8,-151.42 532.83,-144.5 522.24,-144.91 524.8,-151.42"/>
</g>
<!-- 0xc0000887a0 -->
<g id="node28" class="node">
<title>0xc0000887a0</title>
<polygon fill="none" stroke="black" points="561.67,-473 601.76,-507.5 521.58,-507.5 561.67,-473"/>
<text text-anchor="middle" x="561.67" y="-492.3" font-family="Times,serif" font-size="14.00">𓇲</text>
</g>
<!-- b=1&#45;&gt;0xc0000887a0 -->
<g id="edge25" class="edge">
<title>b=1&#45;&gt;0xc0000887a0</title>
<path fill="none" stroke="red" d="M72.8,-378.72C73.7,-416.93 81.77,-497.86 132,-534 254.72,-622.29 451.25,-547.27 528.24,-511.94"/>
<polygon fill="red" stroke="red" points="529.87,-515.05 537.45,-507.64 526.91,-508.7 529.87,-515.05"/>
</g>
<!-- SUM(a,b)=0 -->
<g id="node3" class="node">
<title>SUM(a,b)=0</title>
<polygon fill="black" stroke="black" points="1468.93,-240.5 1316.93,-240.5 1316.93,-211.5 1468.93,-211.5 1468.93,-205.5 1486.93,-226 1468.93,-246.5 1468.93,-240.5"/>
<text text-anchor="middle" x="1401.93" y="-218.5" font-family="Times,serif" font-size="30.00" fill="white">SUM(a,b)=0</text>
</g>
<!-- CARRY(a,b)=1 -->
<g id="node4" class="node">
<title>CARRY(a,b)=1</title>
<polygon fill="black" stroke="black" points="836.06,-510.5 647.06,-510.5 647.06,-481.5 836.06,-481.5 836.06,-475.5 854.06,-496 836.06,-516.5 836.06,-510.5"/>
<text text-anchor="middle" x="750.56" y="-488.5" font-family="Times,serif" font-size="30.00" fill="white">CARRY(a,b)=1</text>
</g>
<!-- 0xc0000a4600 -->
<!-- 0xc0000a4640 -->
<!-- 0xc0000a4680 -->
<!-- 0xc0000a46c0 -->
<!-- OR(a,b)&#45;wire1=1 -->
<g id="node11" class="node">
<title>OR(a,b)&#45;wire1=1</title>
<ellipse fill="none" stroke="black" cx="366.43" cy="-283" rx="72.29" ry="18"/>
<text text-anchor="middle" x="366.43" y="-279.3" font-family="Times,serif" font-size="14.00">OR(a,b)&#45;wire1=1</text>
</g>
<!-- 0xc000088300&#45;&gt;OR(a,b)&#45;wire1=1 -->
<g id="edge3" class="edge">
<title>0xc000088300&#45;&gt;OR(a,b)&#45;wire1=1</title>
<path fill="none" stroke="red" d="M207.29,-283C227.33,-283 256.2,-283 283.81,-283"/>
<polygon fill="red" stroke="red" points="283.9,-286.5 293.9,-283 283.9,-279.5 283.9,-286.5"/>
</g>
<!-- Vcc -->
<g id="node10" class="node">
<title>Vcc</title>
<ellipse fill="none" stroke="black" cx="72" cy="-221" rx="27" ry="18"/>
<text text-anchor="middle" x="72" y="-217.3" font-family="Times,serif" font-size="14.00">Vcc</text>
</g>
<!-- Vcc&#45;&gt;0xc000088300 -->
<g id="edge2" class="edge">
<title>Vcc&#45;&gt;0xc000088300</title>
<path fill="none" stroke="red" d="M92.99,-232.66C110.59,-242.92 136.26,-257.9 155.02,-268.84"/>
<polygon fill="red" stroke="red" points="153.47,-271.99 163.87,-274 157,-265.94 153.47,-271.99"/>
</g>
<!-- Vcc&#45;&gt;0xc000088380 -->
<g id="edge5" class="edge">
<title>Vcc&#45;&gt;0xc000088380</title>
<path fill="none" stroke="red" d="M90.78,-234.04C95.51,-238.12 100.32,-242.91 104,-248 122.88,-274.17 111.56,-290.03 132,-315 138.02,-322.36 146.17,-328.69 154.01,-333.74"/>
<polygon fill="red" stroke="red" points="152.21,-336.75 162.59,-338.88 155.81,-330.74 152.21,-336.75"/>
</g>
<!-- Vcc&#45;&gt;0xc0000884a0 -->
<g id="edge10" class="edge">
<title>Vcc&#45;&gt;0xc0000884a0</title>
<path fill="none" stroke="red" d="M92.58,-209.31C96.68,-206.29 100.74,-202.81 104,-199 122.11,-177.87 113.66,-163.92 132,-143 136.74,-137.59 142.6,-132.68 148.55,-128.41"/>
<polygon fill="red" stroke="red" points="150.84,-131.1 157.23,-122.65 146.96,-125.27 150.84,-131.1"/>
</g>
<!-- 0xc000088600 -->
<g id="node22" class="node">
<title>0xc000088600</title>
<polygon fill="none" stroke="black" points="750.56,-203 790.66,-237.5 710.47,-237.5 750.56,-203"/>
<text text-anchor="middle" x="750.56" y="-222.3" font-family="Times,serif" font-size="14.00">𓇲</text>
</g>
<!-- Vcc&#45;&gt;0xc000088600 -->
<g id="edge17" class="edge">
<title>Vcc&#45;&gt;0xc000088600</title>
<path fill="none" stroke="red" d="M99.11,-221.19C203.77,-221.97 593.14,-224.84 713.73,-225.74"/>
<polygon fill="red" stroke="red" points="713.87,-229.24 723.9,-225.81 713.92,-222.24 713.87,-229.24"/>
</g>
<!-- Vcc&#45;&gt;0xc000088720 -->
<g id="edge23" class="edge">
<title>Vcc&#45;&gt;0xc000088720</title>
<path fill="none" stroke="red" d="M91.56,-233.54C96.31,-237.62 100.93,-242.52 104,-248 140.57,-313.27 103.25,-344.93 132,-414 138.95,-430.71 150.83,-447.25 160.94,-459.6"/>
<polygon fill="red" stroke="red" points="158.44,-462.06 167.57,-467.43 163.78,-457.54 158.44,-462.06"/>
</g>
<!-- OR(a,b)=1 -->
<g id="node14" class="node">
<title>OR(a,b)=1</title>
<ellipse fill="none" stroke="black" cx="561.67" cy="-283" rx="49.29" ry="18"/>
<text text-anchor="middle" x="561.67" y="-279.3" font-family="Times,serif" font-size="14.00">OR(a,b)=1</text>
</g>
<!-- OR(a,b)&#45;wire1=1&#45;&gt;OR(a,b)=1 -->
<g id="edge7" class="edge">
<title>OR(a,b)&#45;wire1=1&#45;&gt;OR(a,b)=1</title>
<path fill="none" stroke="red" d="M438.84,-283C459.62,-283 482.08,-283 501.98,-283"/>
<polygon fill="red" stroke="red" points="502.13,-286.5 512.13,-283 502.13,-279.5 502.13,-286.5"/>
</g>
<!-- OR(a,b)&#45;wire2=1 -->
<g id="node13" class="node">
<title>OR(a,b)&#45;wire2=1</title>
<ellipse fill="none" stroke="black" cx="366.43" cy="-342" rx="72.29" ry="18"/>
<text text-anchor="middle" x="366.43" y="-338.3" font-family="Times,serif" font-size="14.00">OR(a,b)&#45;wire2=1</text>
</g>
<!-- 0xc000088380&#45;&gt;OR(a,b)&#45;wire2=1 -->
<g id="edge6" class="edge">
<title>0xc000088380&#45;&gt;OR(a,b)&#45;wire2=1</title>
<path fill="none" stroke="red" d="M206.51,-346.32C226.69,-345.77 256.16,-344.97 284.26,-344.2"/>
<polygon fill="red" stroke="red" points="284.63,-347.7 294.53,-343.93 284.44,-340.7 284.63,-347.7"/>
</g>
<!-- OR(a,b)&#45;wire2=1&#45;&gt;OR(a,b)=1 -->
<g id="edge8" class="edge">
<title>OR(a,b)&#45;wire2=1&#45;&gt;OR(a,b)=1</title>
<path fill="none" stroke="red" d="M414.38,-328.46C433.6,-322.85 456.03,-316.21 476.27,-310 488.69,-306.19 502.1,-301.96 514.49,-297.99"/>
<polygon fill="red" stroke="red" points="515.72,-301.27 524.17,-294.88 513.58,-294.61 515.72,-301.27"/>
</g>
<!-- OR(a,b)=1&#45;&gt;0xc000088600 -->
<g id="edge16" class="edge">
<title>OR(a,b)=1&#45;&gt;0xc000088600</title>
<path fill="none" stroke="red" d="M600.04,-271.6C629.26,-262.69 670.09,-250.24 701.7,-240.6"/>
<polygon fill="red" stroke="red" points="703.07,-243.84 711.62,-237.57 701.03,-237.14 703.07,-243.84"/>
</g>
<!-- 0xc0000a4780 -->
<!-- NAND(a,b)&#45;wire={1, Gnd} -->
<g id="node17" class="node">
<title>NAND(a,b)&#45;wire={1, Gnd}</title>
<ellipse fill="none" stroke="black" cx="366.43" cy="-138" rx="109.68" ry="18"/>
<text text-anchor="middle" x="366.43" y="-134.3" font-family="Times,serif" font-size="14.00">NAND(a,b)&#45;wire={1, Gnd}</text>
</g>
<!-- 0xc0000884a0&#45;&gt;NAND(a,b)&#45;wire={1, Gnd} -->
<g id="edge11" class="edge">
<title>0xc0000884a0&#45;&gt;NAND(a,b)&#45;wire={1, Gnd}</title>
<path fill="none" stroke="red" d="M212.53,-115.58C229.62,-118.09 251.76,-121.33 273.86,-124.57"/>
<polygon fill="red" stroke="red" points="273.6,-128.07 284,-126.06 274.61,-121.15 273.6,-128.07"/>
</g>
<!-- NAND(a,b)=0 -->
<g id="node18" class="node">
<title>NAND(a,b)=0</title>
<ellipse fill="none" stroke="black" cx="366.43" cy="-84" rx="62.29" ry="18"/>
<text text-anchor="middle" x="366.43" y="-80.3" font-family="Times,serif" font-size="14.00">NAND(a,b)=0</text>
</g>
<!-- 0xc0000884a0&#45;&gt;NAND(a,b)=0 -->
<g id="edge12" class="edge">
<title>0xc0000884a0&#45;&gt;NAND(a,b)=0</title>
<path fill="none" stroke="blue" d="M203.51,-107.74C227.35,-104.25 266.34,-98.53 300.09,-93.58"/>
<polygon fill="blue" stroke="blue" points="300.99,-96.99 310.38,-92.07 299.97,-90.06 300.99,-96.99"/>
</g>
<!-- NAND(a,b)&#45;wire={1, Gnd}&#45;&gt;0xc000088560 -->
<g id="edge14" class="edge">
<title>NAND(a,b)&#45;wire={1, Gnd}&#45;&gt;0xc000088560</title>
<path fill="none" stroke="red" d="M475.07,-135.21C492.61,-134.76 509.66,-134.32 523.87,-133.95"/>
<polygon fill="red" stroke="red" points="524.23,-137.44 534.14,-133.69 524.05,-130.45 524.23,-137.44"/>
</g>
<!-- 0xc000088680 -->
<g id="node24" class="node">
<title>0xc000088680</title>
<polygon fill="none" stroke="black" points="1240.64,-203 1280.73,-237.5 1200.54,-237.5 1240.64,-203"/>
<text text-anchor="middle" x="1240.64" y="-222.3" font-family="Times,serif" font-size="14.00">𓇲</text>
</g>
<!-- NAND(a,b)=0&#45;&gt;0xc000088680 -->
<g id="edge19" class="edge">
<title>NAND(a,b)=0&#45;&gt;0xc000088680</title>
<path fill="none" stroke="blue" d="M428.5,-81.77C522.44,-79.45 707.7,-79.27 862.06,-106 997.85,-129.51 1152.35,-189.72 1213.11,-214.79"/>
<polygon fill="blue" stroke="blue" points="1211.79,-218.03 1222.37,-218.63 1214.48,-211.56 1211.79,-218.03"/>
</g>
<!-- Gnd -->
<g id="node20" class="node">
<title>Gnd</title>
<ellipse fill="none" stroke="black" cx="750.56" cy="-133" rx="27" ry="18"/>
<text text-anchor="middle" x="750.56" y="-129.3" font-family="Times,serif" font-size="14.00">Gnd</text>
</g>
<!-- 0xc000088560&#45;&gt;Gnd -->
<g id="edge15" class="edge">
<title>0xc000088560&#45;&gt;Gnd</title>
<path fill="none" stroke="red" d="M588.66,-133C621.06,-133 676.65,-133 713.25,-133"/>
<polygon fill="red" stroke="red" points="713.5,-136.5 723.5,-133 713.5,-129.5 713.5,-136.5"/>
</g>
<!-- 0xc0000a48c0 -->
<!-- AND(OR(a,b),NAND(a,b))&#45;wire=1 -->
<g id="node23" class="node">
<title>AND(OR(a,b),NAND(a,b))&#45;wire=1</title>
<ellipse fill="none" stroke="black" cx="1027.2" cy="-226" rx="137.28" ry="18"/>
<text text-anchor="middle" x="1027.2" y="-222.3" font-family="Times,serif" font-size="14.00">AND(OR(a,b),NAND(a,b))&#45;wire=1</text>
</g>
<!-- 0xc000088600&#45;&gt;AND(OR(a,b),NAND(a,b))&#45;wire=1 -->
<g id="edge18" class="edge">
<title>0xc000088600&#45;&gt;AND(OR(a,b),NAND(a,b))&#45;wire=1</title>
<path fill="none" stroke="red" d="M777.4,-226C801.71,-226 840.2,-226 879.7,-226"/>
<polygon fill="red" stroke="red" points="879.75,-229.5 889.75,-226 879.75,-222.5 879.75,-229.5"/>
</g>
<!-- AND(OR(a,b),NAND(a,b))&#45;wire=1&#45;&gt;0xc000088680 -->
<g id="edge20" class="edge">
<title>AND(OR(a,b),NAND(a,b))&#45;wire=1&#45;&gt;0xc000088680</title>
<path fill="none" stroke="red" d="M1164.5,-226C1178.67,-226 1192.03,-226 1203.46,-226"/>
<polygon fill="red" stroke="red" points="1203.77,-229.5 1213.77,-226 1203.77,-222.5 1203.77,-229.5"/>
</g>
<!-- 0xc000088680&#45;&gt;SUM(a,b)=0 -->
<g id="edge21" class="edge">
<title>0xc000088680&#45;&gt;SUM(a,b)=0</title>
<path fill="none" stroke="blue" d="M1267.58,-226C1278.69,-226 1292.4,-226 1306.76,-226"/>
<polygon fill="blue" stroke="blue" points="1306.78,-229.5 1316.78,-226 1306.78,-222.5 1306.78,-229.5"/>
</g>
<!-- 0xc0000a4980 -->
<!-- AND(a,b)&#45;wire=1 -->
<g id="node27" class="node">
<title>AND(a,b)&#45;wire=1</title>
<ellipse fill="none" stroke="black" cx="366.43" cy="-485" rx="74.99" ry="18"/>
<text text-anchor="middle" x="366.43" y="-481.3" font-family="Times,serif" font-size="14.00">AND(a,b)&#45;wire=1</text>
</g>
<!-- 0xc000088720&#45;&gt;AND(a,b)&#45;wire=1 -->
<g id="edge24" class="edge">
<title>0xc000088720&#45;&gt;AND(a,b)&#45;wire=1</title>
<path fill="none" stroke="red" d="M208.07,-480.73C227.62,-481.26 255.25,-482.01 281.92,-482.73"/>
<polygon fill="red" stroke="red" points="281.99,-486.24 292.08,-483.01 282.18,-479.24 281.99,-486.24"/>
</g>
<!-- AND(a,b)&#45;wire=1&#45;&gt;0xc0000887a0 -->
<g id="edge26" class="edge">
<title>AND(a,b)&#45;wire=1&#45;&gt;0xc0000887a0</title>
<path fill="none" stroke="red" d="M439.39,-489.1C469.11,-490.79 502.17,-492.67 526.26,-494.04"/>
<polygon fill="red" stroke="red" points="526.14,-497.54 536.32,-494.61 526.54,-490.55 526.14,-497.54"/>
</g>
<!-- 0xc0000887a0&#45;&gt;CARRY(a,b)=1 -->
<g id="edge27" class="edge">
<title>0xc0000887a0&#45;&gt;CARRY(a,b)=1</title>
<path fill="none" stroke="red" d="M588.66,-496C601.86,-496 618.91,-496 636.95,-496"/>
<polygon fill="red" stroke="red" points="637.06,-499.5 647.06,-496 637.06,-492.5 637.06,-499.5"/>
</g>
</g>
</svg>
